<svg width="64" height="90" viewBox="0 0 64 90" fill="none" xmlns="http://www.w3.org/2000/svg">
<path d="M6.1034 81.9151L0.360718 17.5042H63.463L57.7142 81.905L31.8732 89.069L6.1034 81.9151Z" fill="#264DE4"/>
<path d="M52.7926 77.8042L57.7053 22.7708H31.9119V83.5932L52.7926 77.8042Z" fill="#2965F1"/>
<path d="M13.5258 46.6597L14.2338 54.5593H31.9119V46.6597H13.5258Z" fill="#EBEBEB"/>
<path d="M12.8211 38.5702H31.9118V30.6704H31.8845H12.103L12.8211 38.5702Z" fill="#EBEBEB"/>
<path d="M31.8754 75.4055L31.9118 75.3954V67.1764L31.8772 67.1856L23.0792 64.8099L22.5168 58.5095H18.2416H14.5867L15.6934 70.9132L31.8754 75.4055Z" fill="#EBEBEB"/>
<path d="M15.2114 0H24.7794V4.00114H19.2126V8.00229H24.7794V12.0034H15.2114V0Z" fill="black"/>
<path d="M26.693 0H36.2609V3.47926H30.6941V4.17511H36.2609V12.1774H26.693V8.52418H32.2598V7.82833H26.693V0Z" fill="black"/>
<path d="M38.1744 0H47.7424V3.47926H42.1756V4.17511H47.7424V12.1774H38.1744V8.52418H43.7412V7.82833H38.1744V0Z" fill="black"/>
<path d="M51.6735 30.6704H31.8845V38.5702H43.0161L42.2972 46.6597H31.8845V54.5593H41.6122L40.6952 64.8047L31.8845 67.1828V75.4015L48.0794 70.9131L48.1982 69.5784L50.0546 48.781L50.2473 46.6597L51.6735 30.6704Z" fill="white"/>
</svg>
