<svg width="63" height="88" viewBox="0 0 63 88" fill="none" xmlns="http://www.w3.org/2000/svg">
<path d="M14.8189 5.92628V11.8526H24.3795V7.9017H18.8112V3.95085H24.3795V0H14.8189V5.92628ZM26.2811 3.85728L26.2968 7.71975L29.0705 7.73535L31.8388 7.74575V8.42155H26.2706V12.0085H35.8312V4.10681H30.2629V3.431H35.8312V0H26.2706L26.2811 3.85728ZM37.7748 3.87287V7.74575H43.2905V8.42155H37.7748V12.0085H47.2828V4.10681H41.7671V3.431H47.2828V0H37.7748V3.87287ZM0.0262653 17.4773C0.0420245 17.5709 1.33428 31.8823 2.89969 49.2817C4.4651 66.681 5.74685 80.9197 5.75211 80.9249C5.75736 80.9301 11.541 82.526 18.6116 84.465L31.4659 88L44.3516 84.465C51.438 82.5208 57.2426 80.9249 57.2426 80.9197C57.2479 80.9197 58.5296 66.6914 60.0951 49.3077C61.6605 31.9239 62.9527 17.6125 62.9685 17.5033L63 17.311H0L0.0262653 17.4773ZM51.2226 30.4216C51.2226 30.5359 50.8497 34.6895 48.6539 59.0236C48.1076 65.0799 47.64 70.0548 47.6138 70.0756C47.556 70.1276 31.6077 74.4943 31.4816 74.4943C31.3818 74.4943 15.3547 70.1068 15.3179 70.0652C15.3074 70.0548 15.0605 67.3932 14.7716 64.1493C14.4774 60.9055 14.2306 58.1503 14.2095 58.0255L14.1833 57.8072H18.1493C20.3346 57.8072 22.1207 57.8124 22.1259 57.8176C22.1259 57.828 22.252 59.2212 22.4096 60.9159C22.5619 62.6158 22.6985 64.009 22.709 64.0194C22.7195 64.0298 24.6894 64.5652 27.0953 65.2046L31.4606 66.3743L35.8364 65.2046C38.2476 64.56 40.228 64.0246 40.2385 64.0194C40.2595 63.9934 41.1315 54.3658 41.1367 54.1007V53.9083H13.8208V53.7784C13.8208 53.7056 13.6685 51.9537 13.4794 49.8899C13.2903 47.8261 13.1379 46.1314 13.1379 46.121C13.1379 46.1158 19.6044 46.1106 27.505 46.1106H41.8722V45.9806C41.8722 45.913 42.0245 44.1456 42.2136 42.0662C42.4027 39.9816 42.5551 38.2349 42.5551 38.1881C42.5551 38.1101 41.3941 38.1049 27.4945 38.0945L12.4288 38.0789L12.1083 34.5439C11.9297 32.5997 11.7669 30.853 11.7459 30.6555L11.7143 30.3072H51.2226V30.4216Z" fill="#3A3A3C"/>
</svg>
