<svg width="84" height="84" viewBox="0 0 84 84" fill="none" xmlns="http://www.w3.org/2000/svg">
<g clip-path="url(#clip0_32_553)">
<path d="M27.6983 83.6379C35.393 83.6379 41.638 77.3929 41.638 69.6982V55.7585H27.6983C20.0036 55.7585 13.7587 62.0035 13.7587 69.6982C13.7587 77.3929 20.0036 83.6379 27.6983 83.6379Z" fill="#0ACF83"/>
<path d="M13.7587 41.8191C13.7587 34.1244 20.0036 27.8794 27.6983 27.8794H41.638V55.7587H27.6983C20.0036 55.7587 13.7587 49.5137 13.7587 41.8191Z" fill="#A259FF"/>
<path d="M13.7587 13.9397C13.7587 6.24497 20.0036 0 27.6983 0H41.638V27.8793H27.6983C20.0036 27.8793 13.7587 21.6343 13.7587 13.9397Z" fill="#F24E1E"/>
<path d="M41.6379 0H55.5776C63.2723 0 69.5173 6.24497 69.5173 13.9397C69.5173 21.6343 63.2723 27.8793 55.5776 27.8793H41.6379V0Z" fill="#FF7262"/>
<path d="M69.5173 41.8191C69.5173 49.5137 63.2723 55.7587 55.5776 55.7587C47.8829 55.7587 41.6379 49.5137 41.6379 41.8191C41.6379 34.1244 47.8829 27.8794 55.5776 27.8794C63.2723 27.8794 69.5173 34.1244 69.5173 41.8191Z" fill="#1ABCFE"/>
</g>
<defs>
<clipPath id="clip0_32_553">
<rect width="55.7586" height="83.6379" fill="white" transform="translate(13.7587)"/>
</clipPath>
</defs>
</svg>
