<svg width="84" height="84" viewBox="0 0 84 84" fill="none" xmlns="http://www.w3.org/2000/svg">
<path d="M55.4821 31.4335H39.4241V0H55.4821C64.1481 0 71.1971 7.049 71.1971 15.715C71.1971 24.381 64.1481 31.4335 55.4821 31.4335ZM44.5726 26.285H55.4821C61.3096 26.285 66.0486 21.5425 66.0486 15.7185C66.0486 9.8945 61.3061 5.152 55.4821 5.152H44.5726V26.285ZM44.5726 31.4335H28.5181C19.8521 31.4335 12.8031 24.3845 12.8031 15.7185C12.8031 7.0525 19.8521 0 28.5181 0H44.5761V31.4335H44.5726ZM28.5181 5.1485C22.6906 5.1485 17.9516 9.891 17.9516 15.715C17.9516 21.539 22.6906 26.285 28.5181 26.285H39.4276V5.1485H28.5181ZM44.5726 57.715H28.5181C19.8521 57.715 12.8031 50.666 12.8031 42C12.8031 33.334 19.8521 26.285 28.5181 26.285H44.5761V57.715H44.5726ZM28.5181 31.4335C22.6906 31.4335 17.9516 36.176 17.9516 42C17.9516 47.824 22.6941 52.5665 28.5181 52.5665H39.4276V31.4335H28.5181ZM28.6021 84C19.8906 84 12.7996 76.951 12.7996 68.285C12.7996 59.619 19.8486 52.57 28.5146 52.57H44.5726V68.1135C44.5726 76.874 37.4081 84 28.6021 84ZM28.5181 57.715C25.7168 57.7187 23.0313 58.8331 21.0505 60.8139C19.0697 62.7948 17.9553 65.4802 17.9516 68.2815C17.9516 74.109 22.7291 78.848 28.6056 78.848C34.5731 78.848 39.4311 74.032 39.4311 68.11V57.715H28.5181ZM55.4821 57.715H55.1391C46.4731 57.715 39.4241 50.666 39.4241 42C39.4241 33.334 46.4731 26.285 55.1391 26.285H55.4821C64.1481 26.285 71.1971 33.334 71.1971 42C71.1971 50.666 64.1481 57.715 55.4821 57.715ZM55.1426 31.4335C49.3151 31.4335 44.5761 36.176 44.5761 42C44.5761 47.824 49.3186 52.5665 55.1426 52.5665H55.4856C61.3131 52.5665 66.0521 47.824 66.0521 42C66.0521 36.176 61.3061 31.4335 55.4821 31.4335H55.1426Z" fill="#3A3A3C"/>
</svg>
