<svg width="86" height="84" viewBox="0 0 86 84" fill="none" xmlns="http://www.w3.org/2000/svg">
<g clip-path="url(#clip0_32_577)">
<path d="M42.5017 83.9447C64.9144 83.9447 83.0835 65.1654 83.0835 42C83.0835 18.8347 64.9144 0.0554199 42.5017 0.0554199C20.089 0.0554199 1.91992 18.8347 1.91992 42C1.91992 65.1654 20.089 83.9447 42.5017 83.9447Z" fill="white"/>
<path d="M42.8504 1.3999C20.1258 1.3999 1.69751 20.0348 1.69751 43.0258C1.69751 61.42 13.4895 77.0226 29.8389 82.5255C31.8946 82.9099 32.6514 81.6228 32.6514 80.5229C32.6514 79.53 32.6118 76.2503 32.5952 72.7734C21.147 75.2908 18.7311 67.8623 18.7311 67.8623C16.8605 63.0515 14.1604 61.771 14.1604 61.771C10.4258 59.1867 14.4413 59.2402 14.4413 59.2402C18.5725 59.5344 20.7504 63.5295 20.7504 63.5295C24.4222 69.8949 30.3776 68.0528 32.7241 66.9897C33.0943 64.2985 34.1585 62.4631 35.3383 61.4233C26.1969 60.3702 16.5895 56.7997 16.5895 40.8494C16.5895 36.306 18.1957 32.5918 20.8297 29.6765C20.4034 28.6301 18.9955 24.3976 21.2296 18.6641C21.2296 18.6641 24.6866 17.5441 32.549 22.93C35.8308 22.0073 39.3505 21.5459 42.8504 21.5292C46.347 21.5459 49.8701 22.0073 53.1585 22.93C61.0143 17.5441 64.4646 18.6641 64.4646 18.6641C66.7054 24.3976 65.2942 28.6334 64.8678 29.6798C67.5051 32.5951 69.1014 36.3094 69.1014 40.8527C69.1014 56.8398 59.4742 60.3635 50.3096 61.3932C51.7869 62.6837 53.1023 65.2178 53.1023 69.1026C53.1023 74.6723 53.056 79.1555 53.056 80.5262C53.056 81.6328 53.7963 82.9333 55.8817 82.5221C72.2246 77.0126 84 61.4133 84 43.0258C84 20.0348 65.5751 1.3999 42.8504 1.3999Z" fill="#5C6BC0"/>
</g>
<defs>
<clipPath id="clip0_32_577">
<rect width="83" height="84" fill="white" transform="translate(1)"/>
</clipPath>
</defs>
</svg>
