<svg width="86" height="84" viewBox="0 0 86 84" fill="none" xmlns="http://www.w3.org/2000/svg">
<g clip-path="url(#clip0_32_575)">
<path fill-rule="evenodd" clip-rule="evenodd" d="M43.0001 0.00292969C19.2545 0.00292969 0.000610352 19.2826 0.000610352 43.0664C0.000610352 62.0922 12.322 78.2342 29.4055 83.9283C31.5554 84.3276 32.3449 82.9944 32.3449 81.8574C32.3449 80.8305 32.305 77.4378 32.2857 73.8392C20.3232 76.4446 17.7997 68.7589 17.7997 68.7589C15.8429 63.782 13.0249 62.4579 13.0249 62.4579C9.12286 59.7851 13.3188 59.8393 13.3188 59.8393C17.6367 60.144 19.9096 64.2777 19.9096 64.2777C23.7456 70.8612 29.9695 68.9581 32.4235 67.8576C32.8097 65.0747 33.9234 63.1739 35.1532 62.099C25.6026 61.0117 15.5632 57.3183 15.5632 40.8175C15.5632 36.1167 17.2425 32.2744 19.9928 29.2594C19.5467 28.1743 18.0748 23.7941 20.4103 17.8627C20.4103 17.8627 24.0207 16.7046 32.2361 22.2766C35.6671 21.3227 39.3452 20.8446 42.9995 20.8275C46.6538 20.8446 50.3353 21.3227 53.7714 22.2766C61.9788 16.7052 65.5847 17.8621 65.5847 17.8621C67.9248 23.7929 66.4534 28.1732 66.0062 29.2577C68.7633 32.2733 70.4312 36.1149 70.4312 40.8158C70.4312 57.3571 60.3724 60.998 50.7979 62.0643C52.3399 63.4015 53.7145 66.0217 53.7145 70.0397C53.7145 75.8017 53.6655 80.4397 53.6655 81.8574C53.6655 83.0041 54.4385 84.3459 56.6179 83.9237C73.6958 78.2234 86.0001 62.0871 86.0001 43.0669C85.9995 19.2826 66.7479 0.00292969 43.0001 0.00292969Z" fill="#3A3A3C"/>
<path d="M16.2912 61.8296C16.196 62.0441 15.86 62.1091 15.5541 61.9608C15.2407 61.8205 15.067 61.5284 15.1678 61.3139C15.2607 61.0942 15.5968 61.0332 15.9084 61.1798C16.2205 61.3207 16.3983 61.6151 16.2912 61.8296ZM18.028 63.7761C17.823 63.9667 17.4214 63.8788 17.1508 63.5776C16.8682 63.2769 16.8164 62.8747 17.0243 62.6819C17.2351 62.4919 17.6247 62.5809 17.9056 62.8816C18.1875 63.1851 18.2428 63.5833 18.028 63.7761ZM19.7233 66.2578C19.4596 66.4421 19.0283 66.2703 18.7617 65.887C18.498 65.5036 18.498 65.0443 18.7674 64.8601C19.0352 64.6764 19.4596 64.843 19.7302 65.2218C19.9922 65.6114 19.9922 66.0701 19.7233 66.2578ZM22.0515 68.6545C21.8156 68.9146 21.3138 68.8444 20.9464 68.489C20.5704 68.1421 20.4656 67.6492 20.7014 67.3891C20.9407 67.1284 21.4454 67.2008 21.8156 67.5545C22.1888 67.9003 22.3021 68.3966 22.0515 68.6545ZM25.2558 70.0448C25.1509 70.3813 24.669 70.5354 24.1814 70.391C23.6943 70.2439 23.3759 69.8491 23.475 69.5085C23.5753 69.169 24.0618 69.0093 24.5517 69.1628C25.0376 69.3094 25.3572 69.7019 25.2558 70.0448ZM28.7733 70.3015C28.7847 70.6569 28.3723 70.9518 27.8619 70.9575C27.3469 70.969 26.9305 70.6814 26.9248 70.3323C26.9248 69.9729 27.3293 69.6819 27.842 69.6734C28.3546 69.6619 28.7733 69.9489 28.7733 70.3009M32.0488 69.7452C32.1098 70.091 31.7549 70.447 31.2468 70.5417C30.7477 70.6341 30.2858 70.4196 30.2225 70.0767C30.1599 69.7213 30.5216 69.3659 31.02 69.274C31.5287 69.185 31.9839 69.3932 32.0488 69.7452Z" fill="#3A3A3C"/>
</g>
<defs>
<clipPath id="clip0_32_575">
<rect width="86" height="84" fill="white"/>
</clipPath>
</defs>
</svg>
