<svg width="63" height="88" viewBox="0 0 63 88" fill="none" xmlns="http://www.w3.org/2000/svg">
<g clip-path="url(#clip0_32_519)">
<g clip-path="url(#clip1_32_519)">
<path d="M62.0675 17.2607L56.413 80.766L30.9957 87.8303L5.64852 80.7759L0 17.2607H62.0675Z" fill="#E44D26"/>
<path d="M31.0337 82.4307L51.572 76.7223L56.4042 22.4541H31.0337V82.4307Z" fill="#F16529"/>
<path d="M20.0417 38.0339H31.0338V30.2439H11.5498L11.7358 32.3338L13.6456 53.8006H31.0338V46.0108H20.7518L20.0417 38.0339Z" fill="#EBEBEB"/>
<path d="M21.7927 57.6958H13.9927L15.0813 69.927L30.9979 74.3568L31.0337 74.3468V66.2421L30.9997 66.2512L22.3459 63.9086L21.7927 57.6958Z" fill="#EBEBEB"/>
<path d="M5.77478 0H9.72349V3.91119H13.3356V0H17.2845V11.8441H13.3358V7.87797H9.72366V11.8441H5.77495L5.77478 0Z" fill="black"/>
<path d="M22.4773 3.92766H19.001V0H29.9041V3.92766H26.4263V11.8441H22.4774L22.4773 3.92766Z" fill="black"/>
<path d="M31.6345 0H35.7519L38.2847 4.16165L40.8149 0H44.9339V11.8441H41.0014V5.97349L38.2847 10.1847H38.2168L35.4982 5.97349V11.8441H31.6345V0Z" fill="black"/>
<path d="M46.899 0H50.849V7.92909H56.402V11.8441H46.899V0Z" fill="black"/>
<path d="M31.0068 53.8008H40.575L39.673 63.9037L31.0068 66.2487V74.3531L46.9362 69.9271L47.053 68.611L48.8789 48.1028L49.0685 46.011H31.0068V53.8008Z" fill="white"/>
<path d="M31.0068 38.0148V38.0339H49.7756L49.9314 36.2829L50.2855 32.3338L50.4713 30.2439H31.0068V38.0148Z" fill="white"/>
</g>
</g>
<defs>
<clipPath id="clip0_32_519">
<rect width="63" height="88" fill="white"/>
</clipPath>
<clipPath id="clip1_32_519">
<rect width="62.2841" height="87.8303" fill="white"/>
</clipPath>
</defs>
</svg>
