<svg width="63" height="88" viewBox="0 0 63 88" fill="none" xmlns="http://www.w3.org/2000/svg">
<g clip-path="url(#clip0_32_517)">
<path fill-rule="evenodd" clip-rule="evenodd" d="M31.5 88L6.20141 80.7991L0.367065 17.2466H62.6343L56.7904 80.7991L31.5 88ZM51.0848 30.2225H11.9057L14.097 54.0182L14.1449 53.8698H40.913L40.0393 63.9348L31.5 66.4056L22.8307 63.8976L22.3102 57.8064H14.4421L15.5651 69.9889L31.5 74.5223L47.4349 69.9792L49.6262 46.09H21.2242L20.4915 38.1219H50.3617L51.0875 30.2211L51.0848 30.2225ZM51.2991 7.87325V0H47.3322V11.8663H56.837V7.87325H51.2991ZM19.4294 3.993H22.8875V11.8663H26.8729V3.993H30.3297V0H19.4417V3.993H19.4307H19.4294ZM45.3087 0V11.8663H41.4636V5.82175L38.656 10.2162L38.6444 10.2245L38.6348 10.2149L35.8956 5.93862V11.8649H32.0478V0H36.1737L38.6334 4.05625L41.1007 0H45.3087ZM13.7265 3.93663H10.1314V0H6.15622V11.8663H10.1314V7.92963H13.7279V11.8663H17.6941V0H13.7224V3.93663H13.7251H13.7265Z" fill="#3A3A3C"/>
</g>
<defs>
<clipPath id="clip0_32_517">
<rect width="63" height="88" fill="white"/>
</clipPath>
</defs>
</svg>
