<svg xmlns="http://www.w3.org/2000/svg" width="84" height="84" viewBox="0 0 84 84" fill="none">
  <g clip-path="url(#clip0_32_501)">
    <path d="M64.3125 0H19.6875C8.81439 0 0 8.81439 0 19.6875V64.3125C0 75.1856 8.81439 84 19.6875 84H64.3125C75.1856 84 84 75.1856 84 64.3125V19.6875C84 8.81439 75.1856 0 64.3125 0Z" fill="#330000"/>
    <path d="M40.5998 49.9842H27.5798L24.9198 58.2093C24.8498 58.5243 24.5698 58.7343 24.2548 58.6992H17.6748C17.2898 58.6992 17.1848 58.4892 17.2898 58.0692L28.5598 25.6243C28.6648 25.2743 28.7698 24.8893 28.9098 24.4693C29.0498 23.7343 29.1198 22.9643 29.1198 22.1943C29.0848 22.0193 29.2248 21.8443 29.3998 21.8093H29.5048H38.4647C38.7449 21.8093 38.8847 21.9143 38.9198 22.0893L51.6947 58.1394C51.7997 58.5243 51.6947 58.6992 51.3449 58.6992H44.0297C43.7849 58.7343 43.5398 58.5594 43.4699 58.3143L40.5998 49.9842ZM29.6098 42.8793H38.4998C38.2898 42.1443 38.0099 41.2692 37.6949 40.3593C37.3799 39.4143 37.0649 38.3994 36.7499 37.3494C36.3998 36.2643 36.0848 35.2143 35.7347 34.1292C35.3849 33.0444 35.0699 32.0293 34.7897 31.0143C34.5098 30.0343 34.2647 29.1243 34.0199 28.2843H33.9497C33.6347 29.7893 33.2498 31.2943 32.7598 32.7993C32.2348 34.4793 31.7098 36.2292 31.1498 37.9794C30.6598 39.7644 30.1348 41.4093 29.6098 42.8793Z" fill="#FF9A00"/>
    <path d="M59.4999 27.9344C58.3449 27.9694 57.225 27.5144 56.385 26.7094C55.5801 25.8344 55.1601 24.6794 55.1949 23.4894C55.1601 22.2994 55.6149 21.1794 56.4549 20.3744C57.2949 19.5694 58.4151 19.1494 59.5701 19.1494C60.9351 19.1494 61.9851 19.5694 62.7549 20.3744C63.525 21.2144 63.945 22.3344 63.9099 23.4894C63.945 24.6794 63.525 25.8344 62.685 26.7094C61.8801 27.5494 60.69 28.0044 59.4999 27.9344ZM55.5801 58.3144V31.3644C55.5801 31.0144 55.7199 30.8744 56.0349 30.8744H62.9649C63.2799 30.8744 63.42 31.0494 63.42 31.3644V58.3144C63.42 58.6993 63.2799 58.8745 62.9649 58.8745H56.1051C55.755 58.8745 55.5801 58.6645 55.5801 58.3144Z" fill="#FF9A00"/>
  </g>
  <defs>
    <clipPath id="clip0_32_501">
      <rect width="84" height="84" fill="white"/>
    </clipPath>
  </defs>
</svg>