<svg xmlns="http://www.w3.org/2000/svg" width="84" height="84" viewBox="0 0 84 84" fill="none">
  <g clip-path="url(#clip0_32_506)">
    <path d="M64.3125 0H19.6875C8.81439 0 0 8.81439 0 19.6875V64.3125C0 75.1856 8.81439 84 19.6875 84H64.3125C75.1856 84 84 75.1856 84 64.3125V19.6875C84 8.81439 75.1856 0 64.3125 0Z" fill="#3A3A3C"/>
    <path d="M18.9 58.4193V22.4043C18.9 22.1593 19.005 22.0193 19.25 22.0193C19.845 22.0193 20.405 22.0193 21.21 21.9843C22.05 21.9493 22.925 21.9493 23.87 21.9143C24.815 21.8793 25.83 21.8793 26.915 21.8443C28 21.8093 29.05 21.8093 30.1 21.8093C32.97 21.8093 35.3499 22.1593 37.3101 22.8943C39.06 23.4893 40.6701 24.4693 42 25.7643C43.1199 26.8843 43.995 28.2493 44.5551 29.7543C45.0801 31.2243 45.36 32.7293 45.36 34.3045C45.36 37.3143 44.6601 39.7992 43.26 41.7595C41.8599 43.7194 39.9 45.1894 37.6251 46.0294C35.2449 46.9045 32.62 47.2195 29.75 47.2195C28.91 47.2195 28.35 47.2195 28 47.1844C27.65 47.1492 27.16 47.1492 26.495 47.1492V58.3842C26.53 58.6294 26.355 58.8394 26.11 58.8745C26.075 58.8745 26.04 58.8745 25.97 58.8745H19.32C19.04 58.8745 18.9 58.7343 18.9 58.4193ZM26.53 28.7743V40.5342C27.02 40.5693 27.475 40.6045 27.895 40.6045H29.75C31.115 40.6045 32.48 40.3945 33.7749 39.9745C34.8951 39.6595 35.8749 38.9943 36.645 38.1192C37.38 37.2445 37.7301 36.0543 37.7301 34.5145C37.7649 33.4293 37.485 32.3443 36.9249 31.3993C36.33 30.4893 35.49 29.7893 34.4751 29.4043C33.18 28.8793 31.78 28.6693 30.345 28.7043C29.435 28.7043 28.63 28.7043 27.965 28.7393C27.265 28.7043 26.775 28.7393 26.53 28.7743Z" fill="#FCFCFC"/>
    <path d="M67.2 38.3994C66.15 37.8393 65.0301 37.4544 63.84 37.2093C62.5449 36.9294 61.2501 36.7542 59.9199 36.7542C59.22 36.7194 58.485 36.8244 57.8199 36.9993C57.3651 37.1043 56.9799 37.3494 56.7351 37.6992C56.5599 37.9794 56.4549 38.3292 56.4549 38.6442C56.4549 38.9592 56.595 39.2742 56.805 39.5544C57.12 39.9393 57.54 40.2543 57.9951 40.4994C58.8 40.9194 59.64 41.3043 60.48 41.6544C62.37 42.2844 64.1901 43.1592 65.8701 44.2092C67.0251 44.9442 67.9701 45.9243 68.6349 47.1144C69.195 48.2343 69.4749 49.4592 69.4401 50.7192C69.4749 52.3644 68.985 54.0093 68.0751 55.3743C67.095 56.7744 65.73 57.8592 64.155 58.4892C62.4399 59.2242 60.3399 59.6094 57.8199 59.6094C56.2101 59.6094 54.6351 59.4693 53.0601 59.1543C51.8349 58.9443 50.61 58.5594 49.4901 58.0344C49.245 57.8943 49.0701 57.6492 49.1049 57.3693V51.2793C49.1049 51.1743 49.14 51.0342 49.245 50.9643C49.35 50.8944 49.455 50.9292 49.56 50.9994C50.925 51.8043 52.3599 52.3644 53.9001 52.7142C55.23 53.0643 56.6301 53.2392 58.0299 53.2392C59.3601 53.2392 60.3051 53.0643 60.9351 52.7493C61.4949 52.5042 61.8801 51.9093 61.8801 51.2793C61.8801 50.7894 61.5999 50.3343 61.0401 49.8792C60.48 49.4244 59.325 48.8994 57.6099 48.2343C55.8249 47.6043 54.18 46.7643 52.6401 45.7143C51.555 44.9442 50.6451 43.9293 49.98 42.7392C49.4199 41.6193 49.14 40.3944 49.1751 39.1692C49.1751 37.6644 49.5951 36.2292 50.3649 34.9344C51.24 33.5343 52.5351 32.4143 54.0399 31.7142C55.6851 30.8742 57.75 30.4893 60.2349 30.4893C61.6701 30.4893 63.1401 30.5943 64.575 30.8043C65.625 30.9443 66.6399 31.2243 67.5849 31.6092C67.725 31.6443 67.8651 31.7843 67.935 31.9242C67.9701 32.0643 68.0049 32.2043 68.0049 32.3442V38.0493C68.0049 38.1894 67.935 38.3292 67.83 38.3994C67.515 38.4693 67.3401 38.4693 67.2 38.3994Z" fill="#FCFCFC"/>
  </g>
  <defs>
    <clipPath id="clip0_32_506">
      <rect width="84" height="84" fill="white"/>
    </clipPath>
  </defs>
</svg>