<svg width="83" height="84" viewBox="0 0 83 84" fill="none" xmlns="http://www.w3.org/2000/svg">
<g clip-path="url(#clip0_32_563)">
<path d="M49.2812 0.63L52.3937 1.33L54.9183 2.24L56.9587 3.29L58.515 4.41L59.6908 5.6L60.5554 6.79L61.1087 7.945L61.4546 8.995L61.5929 9.905L61.6621 10.605L61.6275 11.06V29.75L61.4546 31.955L61.005 33.88L60.2787 35.49L59.3796 36.82L58.3421 37.905L57.2008 38.78L55.9904 39.445L54.78 39.935L53.6387 40.285L52.6012 40.53L51.7021 40.67L50.9758 40.74H30.3296L27.9433 40.915L25.9029 41.405L24.1737 42.175L22.7558 43.12L21.6146 44.24L20.6808 45.465L19.9891 46.725L19.4704 48.02L19.1246 49.245L18.8825 50.365L18.7441 51.31L18.675 52.045V62.755H10.9629L10.2366 62.65L9.26831 62.405L8.16165 61.985L6.95123 61.355L5.70623 60.445L4.46123 59.185L3.25081 57.575L2.14415 55.51L1.17581 52.955L0.449564 49.875L-0.0346029 46.2L-0.20752 41.895L-1.95354e-05 37.625L0.553314 33.985L1.38331 30.94L2.48998 28.455L3.73498 26.46L5.11831 24.92L6.57081 23.765L8.02331 22.925L9.40665 22.365L10.6516 22.015L11.7583 21.84L12.5883 21.805H13.1416L13.3491 21.84H41.5691V18.935H21.3725L21.3379 9.31L21.2687 8.015L21.4416 6.825L21.8221 5.74L22.41 4.76L23.2746 3.85L24.3466 3.045L25.6608 2.345L27.1825 1.715L28.9462 1.19L30.9521 0.77L33.1654 0.42L35.6208 0.21L38.2837 0.07L41.1887 0L45.5808 0.175L49.2812 0.63ZM27.4937 7.56L26.6983 8.715L26.4216 10.15L26.6983 11.585L27.4937 12.775L28.635 13.545L30.0529 13.86L31.4708 13.545L32.6121 12.775L33.4075 11.585L33.6841 10.15L33.4075 8.715L32.6121 7.56L31.4708 6.79L30.0529 6.475L28.635 6.79L27.4937 7.56ZM72.7633 21.385L73.7316 21.595L74.8383 22.015L76.0487 22.645L77.2937 23.59L78.5387 24.815L79.7491 26.46L80.8558 28.525L81.8241 31.08L82.5504 34.16L83.0346 37.8L83.2075 42.105L83 46.41L82.4466 50.05L81.6166 53.06L80.51 55.545L79.265 57.54L77.8816 59.115L76.4291 60.27L74.9766 61.11L73.5933 61.67L72.3483 61.985L71.2416 62.16L70.4116 62.23L69.8583 62.195H41.4308V65.065H61.6275L61.6621 74.725L61.7312 75.985L61.5583 77.175L61.1779 78.26L60.59 79.275L59.7254 80.15L58.6533 80.99L57.3391 81.69L55.8175 82.285L54.0537 82.81L52.0479 83.265L49.8346 83.58L47.3791 83.825L44.7162 83.965L41.8112 84L37.4191 83.86L33.7187 83.37L30.6062 82.67L28.0816 81.795L26.0412 80.745L24.485 79.59L23.3091 78.4L22.4446 77.21L21.8912 76.055L21.5454 75.005L21.4071 74.13L21.3379 73.43L21.3725 72.975V54.285L21.5454 52.045L21.995 50.155L22.7212 48.545L23.6204 47.215L24.6579 46.095L25.7991 45.255L27.0096 44.555L28.22 44.065L29.3612 43.715L30.3987 43.505L31.2979 43.365L32.0241 43.295L32.4737 43.26H52.6704L55.0566 43.085L57.0971 42.595L58.8262 41.86L60.2441 40.88L61.3854 39.76L62.3191 38.535L63.0108 37.275L63.5296 36.015L63.8754 34.79L64.1175 33.67L64.2558 32.69L64.325 31.955V21.245H71.5529L72.0371 21.28L72.7633 21.385ZM50.3879 71.26L49.5925 72.415L49.3158 73.85L49.5925 75.285L50.3879 76.44L51.5291 77.245L52.9471 77.525L54.365 77.245L55.5062 76.44L56.3016 75.285L56.5783 73.85L56.3016 72.415L55.5062 71.26L54.365 70.455L52.9471 70.175L51.5291 70.455L50.3879 71.26Z" fill="#3A3A3C"/>
</g>
<defs>
<clipPath id="clip0_32_563">
<rect width="83" height="84" fill="white"/>
</clipPath>
</defs>
</svg>
