<svg width="83" height="84" viewBox="0 0 83 84" fill="none" xmlns="http://www.w3.org/2000/svg">
<g clip-path="url(#clip0_32_565)">
<g clip-path="url(#clip1_32_565)">
<path d="M-1 41.2842C-0.965 41.1687 -0.937 41.0497 -0.92125 40.9307C-0.8565 39.711 -0.8425 38.4772 -0.71125 37.2557C-0.5065 33.3007 0.813 29.4857 3.095 26.2482C4.12371 24.856 5.46474 23.7247 7.01028 22.945C8.55581 22.1654 10.2627 21.7594 11.9937 21.7595H40.3175C40.8687 21.7595 40.8687 21.7595 40.8687 21.2082V19.2395C40.8687 18.8335 40.7497 18.7425 40.37 18.7425H21.0902C20.7612 18.7425 20.644 18.6497 20.644 18.3085V8.6905C20.707 7.2975 21.288 5.978 22.2715 4.98925C23.5776 3.59909 25.204 2.54951 27.0087 1.932C29.2128 1.13953 31.5043 0.615425 33.8337 0.370995C37.0179 0.00744179 40.227 -0.0891449 43.4272 0.082245C46.8782 0.146995 50.2925 0.780495 53.5352 1.95825C55.7594 2.7084 57.7254 4.07367 59.2052 5.89575C60.395 7.42676 60.9832 9.34029 60.859 11.2752C60.7802 12.9027 60.859 14.5425 60.859 16.1822V25.2647C60.859 27.048 60.859 28.8452 60.7802 30.6162C60.7675 32.5368 60.1721 34.4082 59.0728 35.9831C57.9735 37.558 56.4221 38.7621 54.6237 39.4362C52.879 40.1505 51.0086 40.507 49.1235 40.4845H29.0685C26.9478 40.4439 24.8575 40.9934 23.031 42.0717C20.6952 43.5398 19.0311 45.8684 18.3987 48.5537C18.0182 49.9074 17.8279 51.3074 17.8335 52.7135V61.8065C17.8335 62.4102 17.8335 62.398 17.2297 62.4102C15.051 62.4102 12.8722 62.4767 10.6672 62.4102C8.5093 62.3232 6.451 61.4787 4.85375 60.025C2.99704 58.3363 1.61275 56.1926 0.8375 53.8055C0.051787 51.6356 -0.4471 49.3724 -0.6465 47.0732C-0.77775 45.6032 -0.83025 44.1332 -0.92125 42.6772C-0.938311 42.5143 -0.964603 42.3525 -1 42.1925V41.2842Z" fill="#3772A4"/>
<path d="M25.6052 10.0414C25.6104 10.7695 25.8311 11.4798 26.2394 12.0827C26.6477 12.6856 27.2253 13.1541 27.8995 13.4292C28.5737 13.7042 29.3143 13.7735 30.0278 13.6283C30.7413 13.4831 31.3958 13.1298 31.9089 12.6131C32.4219 12.0964 32.7705 11.4394 32.9107 10.7249C33.0508 10.0103 32.9763 9.27031 32.6965 8.59808C32.4166 7.92586 31.944 7.35153 31.3382 6.94752C30.7325 6.54351 30.0206 6.3279 29.2925 6.32788C28.3123 6.33527 27.3747 6.72971 26.6841 7.42528C25.9934 8.12085 25.6057 9.06117 25.6052 10.0414Z" fill="black"/>
<path d="M25.6052 10.0416C25.6052 9.55672 25.7007 9.07656 25.8863 8.62856C26.0719 8.18057 26.3439 7.77351 26.6867 7.43063C27.0296 7.08775 27.4367 6.81576 27.8847 6.6302C28.3327 6.44463 28.8128 6.34912 29.2977 6.34912C29.7826 6.34912 30.2628 6.44463 30.7108 6.6302C31.1588 6.81576 31.5658 7.08775 31.9087 7.43063C32.2516 7.77351 32.5236 8.18057 32.7092 8.62856C32.8947 9.07656 32.9902 9.55672 32.9902 10.0416C32.9902 11.0209 32.6012 11.9601 31.9087 12.6526C31.2162 13.3451 30.277 13.7341 29.2977 13.7341C28.3184 13.7341 27.3792 13.3451 26.6867 12.6526C25.9943 11.9601 25.6052 11.0209 25.6052 10.0416Z" fill="white"/>
<path d="M83 42.7017C82.965 42.8172 82.937 42.9362 82.9212 43.0569C82.8565 44.2767 82.8425 45.5104 82.7112 46.7319C82.5062 50.6866 81.1866 54.5027 78.905 57.7394C77.8776 59.1339 76.5371 60.2676 74.9915 61.0494C73.4459 61.8312 71.7383 62.2391 70.0062 62.2404H41.6825C41.1312 62.2404 41.1312 62.2404 41.1312 62.7917V64.7604C41.1312 65.1664 41.2502 65.2592 41.63 65.2592H60.9115C61.2387 65.2592 61.3577 65.3502 61.3577 65.6914V75.3094C61.2936 76.7024 60.7135 78.0218 59.7302 79.0106C58.4236 80.401 56.7966 81.4506 54.9912 82.0679C52.7917 82.8593 50.5049 83.3833 48.1802 83.6289C44.9952 83.9929 41.7857 84.0891 38.585 83.9176C35.1359 83.8538 31.721 83.2199 28.4787 82.0416C26.2545 81.2915 24.2886 79.9262 22.8087 78.1041C21.619 76.5731 21.0307 74.6596 21.155 72.7247C21.2337 71.0972 21.155 69.4574 21.155 67.8176V58.7352C21.155 56.9519 21.155 55.1547 21.2337 53.3837C21.2461 51.4633 21.8412 49.5919 22.9402 48.017C24.0392 46.4421 25.5903 45.2379 27.3885 44.5637C29.1332 43.8494 31.0036 43.4929 32.8887 43.5154H52.9315C55.0522 43.556 57.1425 43.0065 58.969 41.9282C61.3077 40.4566 62.972 38.1226 63.6012 35.4322C63.9817 34.0785 64.172 32.6785 64.1665 31.2724V22.1794C64.1665 21.5757 64.1665 21.5897 64.7702 21.5757C66.949 21.5757 69.1277 21.5109 71.3327 21.5757C73.4911 21.6637 75.5495 22.5095 77.1462 23.9644C79.0029 25.6532 80.3872 27.7968 81.1625 30.1839C81.9454 32.3623 82.4396 34.6339 82.6325 36.9406C82.7637 38.4107 82.8162 39.8807 82.909 41.3367C82.9265 41.4959 82.9527 41.6534 82.9877 41.8092C82.9965 42.0979 83 42.3954 83 42.7017Z" fill="#FFDA4B"/>
<path d="M56.3948 73.486C56.3896 72.7578 56.169 72.0475 55.7607 71.4446C55.3524 70.8417 54.7747 70.3732 54.1005 70.0982C53.4263 69.8231 52.6858 69.7538 51.9722 69.899C51.2587 70.0443 50.6042 70.3975 50.0911 70.9142C49.5781 71.4309 49.2295 72.0879 49.0893 72.8025C48.9492 73.517 49.0237 74.257 49.3036 74.9293C49.5834 75.6015 50.056 76.1758 50.6618 76.5798C51.2676 76.9838 51.9794 77.1994 52.7075 77.1995C53.6877 77.1921 54.6253 76.7976 55.3159 76.1021C56.0066 75.4065 56.3944 74.4662 56.3948 73.486Z" fill="black"/>
<path d="M56.3948 73.486C56.3948 74.4653 56.0057 75.4045 55.3133 76.0969C54.6208 76.7894 53.6816 77.1785 52.7023 77.1785C51.723 77.1785 50.7838 76.7894 50.0913 76.0969C49.3988 75.4045 49.0098 74.4653 49.0098 73.486C49.0098 72.5066 49.3988 71.5674 50.0913 70.875C50.7838 70.1825 51.723 69.7935 52.7023 69.7935C53.6816 69.7935 54.6208 70.1825 55.3133 70.875C56.0057 71.5674 56.3948 72.5066 56.3948 73.486Z" fill="white"/>
</g>
</g>
<defs>
<clipPath id="clip0_32_565">
<rect width="83" height="84" fill="white"/>
</clipPath>
<clipPath id="clip1_32_565">
<rect width="84" height="84" fill="white" transform="translate(-1)"/>
</clipPath>
</defs>
</svg>
